# xmcd CD database file
#
# Track frame offsets:
#	150
#	25428
#	41163
#	59255
#	79515
#	98977
#	115544
#	131649
#	148207
#	167788
#	179855
#	196560
#
# Disc length: 2778 seconds
#
# Revision: 2
# Processed by: cddbd v1.5.2PL0 Copyright (c) Steve Scherf et al.
# Submitted via: CDex 1.51
#
DISCID=a80ad80c
DTITLE=Hauschka - Ferndorf  { Volker Bertelmann }
DYEAR=2008
DGENRE=Contemporain
TTITLE0=Blue Bycicle
TTITLE1=Morgenrot
TTITLE2=Rodenull
TTITLE3=Freibad
TTITLE4=Barfuss Durch Grass
TTITLE5=Heimat
TTITLE6=Nadelwald
TTITLE7=Schönes Mädchen
TTITLE8=Eltern
TTITLE9=Alma
TTITLE10=Neuschnee
TTITLE11=Weeks Of Rain
EXTD=YEAR: 2008
EXTT0=
EXTT1=
EXTT2=
EXTT3=
EXTT4=
EXTT5=
EXTT6=
EXTT7=
EXTT8=
EXTT9=
EXTT10=
EXTT11=
PLAYORDER=
